<svg xmlns="http://www.w3.org/2000/svg" width="1600" height="900" viewBox="0 0 1600 900">
  <rect width="1600" height="900" fill="#FFFFFF"/>
  <rect width="1600" height="14" fill="#F4D35E"/>
  <text x="90" y="82" font-family="Arial, sans-serif" font-size="42" font-weight="700" fill="#14213D">El mapa cambia cuando se ajusta por población</text>
  <text x="90" y="121" font-family="Arial, sans-serif" font-size="22" fill="#5B6573">Localidades con mayores diferencias entre ranking por conteo y ranking por tasa, 2026</text>
  <text x="520" y="165" text-anchor="middle" font-family="Arial" font-size="24" font-weight="700" fill="#B23A48">Ranking por conteo</text><text x="1080" y="165" text-anchor="middle" font-family="Arial" font-size="24" font-weight="700" fill="#1F6E8C">Ranking por tasa</text><line x1="520" y1="195" x2="520" y2="750" stroke="#DDE3EA" stroke-width="5"/><line x1="1080" y1="195" x2="1080" y2="750" stroke="#DDE3EA" stroke-width="5"/><text x="478" y="202" text-anchor="end" font-family="Arial" font-size="18" fill="#5B6573">1</text><text x="1122" y="202" font-family="Arial" font-size="18" fill="#5B6573">1</text><text x="478" y="318.8421052631579" text-anchor="end" font-family="Arial" font-size="18" fill="#5B6573">5</text><text x="1122" y="318.8421052631579" font-family="Arial" font-size="18" fill="#5B6573">5</text><text x="478" y="464.89473684210526" text-anchor="end" font-family="Arial" font-size="18" fill="#5B6573">10</text><text x="1122" y="464.89473684210526" font-family="Arial" font-size="18" fill="#5B6573">10</text><text x="478" y="610.9473684210526" text-anchor="end" font-family="Arial" font-size="18" fill="#5B6573">15</text><text x="1122" y="610.9473684210526" font-family="Arial" font-size="18" fill="#5B6573">15</text><text x="478" y="757" text-anchor="end" font-family="Arial" font-size="18" fill="#5B6573">20</text><text x="1122" y="757" font-family="Arial" font-size="18" fill="#5B6573">20</text><line x1="520" y1="253.42105263157896" x2="1080" y2="603.9473684210526" stroke="#1F6E8C" stroke-width="4" opacity="0.8"/><circle cx="520" cy="253.42105263157896" r="9" fill="#B23A48"/><circle cx="1080" cy="603.9473684210526" r="9" fill="#1F6E8C"/><text x="460" y="260.42105263157896" text-anchor="end" font-family="Arial" font-size="19" font-weight="700" fill="#14213D">Kennedy</text><text x="1140" y="610.9473684210526" font-family="Arial" font-size="19" font-weight="700" fill="#14213D">Kennedy</text><line x1="520" y1="224.21052631578948" x2="1080" y2="487.10526315789474" stroke="#2A9D8F" stroke-width="4" opacity="0.8"/><circle cx="520" cy="224.21052631578948" r="9" fill="#B23A48"/><circle cx="1080" cy="487.10526315789474" r="9" fill="#1F6E8C"/><text x="460" y="231.21052631578948" text-anchor="end" font-family="Arial" font-size="19" font-weight="700" fill="#14213D">Engativá</text><text x="1140" y="494.10526315789474" font-family="Arial" font-size="19" font-weight="700" fill="#14213D">Engativá</text><line x1="520" y1="195" x2="1080" y2="574.7368421052631" stroke="#1F6E8C" stroke-width="4" opacity="0.8"/><circle cx="520" cy="195" r="9" fill="#B23A48"/><circle cx="1080" cy="574.7368421052631" r="9" fill="#1F6E8C"/><text x="460" y="202" text-anchor="end" font-family="Arial" font-size="19" font-weight="700" fill="#14213D">Suba</text><text x="1140" y="581.7368421052631" font-family="Arial" font-size="19" font-weight="700" fill="#14213D">Suba</text><line x1="520" y1="516.3157894736842" x2="1080" y2="341.0526315789474" stroke="#2A9D8F" stroke-width="4" opacity="0.8"/><circle cx="520" cy="516.3157894736842" r="9" fill="#B23A48"/><circle cx="1080" cy="341.0526315789474" r="9" fill="#1F6E8C"/><text x="460" y="523.3157894736842" text-anchor="end" font-family="Arial" font-size="19" font-weight="700" fill="#14213D">Barrios Unidos</text><text x="1140" y="348.0526315789474" font-family="Arial" font-size="19" font-weight="700" fill="#14213D">Barrios Unidos</text><line x1="520" y1="487.10526315789474" x2="1080" y2="253.42105263157896" stroke="#1F6E8C" stroke-width="4" opacity="0.8"/><circle cx="520" cy="487.10526315789474" r="9" fill="#B23A48"/><circle cx="1080" cy="253.42105263157896" r="9" fill="#1F6E8C"/><text x="460" y="494.10526315789474" text-anchor="end" font-family="Arial" font-size="19" font-weight="700" fill="#14213D">Los Mártires</text><text x="1140" y="260.42105263157896" font-family="Arial" font-size="19" font-weight="700" fill="#14213D">Los Mártires</text><line x1="520" y1="633.1578947368421" x2="1080" y2="370.2631578947368" stroke="#2A9D8F" stroke-width="4" opacity="0.8"/><circle cx="520" cy="633.1578947368421" r="9" fill="#B23A48"/><circle cx="1080" cy="370.2631578947368" r="9" fill="#1F6E8C"/><text x="460" y="640.1578947368421" text-anchor="end" font-family="Arial" font-size="19" font-weight="700" fill="#14213D">Antonio Nariño</text><text x="1140" y="377.2631578947368" font-family="Arial" font-size="19" font-weight="700" fill="#14213D">Antonio Nariño</text><line x1="520" y1="720.7894736842105" x2="1080" y2="195" stroke="#1F6E8C" stroke-width="4" opacity="0.8"/><circle cx="520" cy="720.7894736842105" r="9" fill="#B23A48"/><circle cx="1080" cy="195" r="9" fill="#1F6E8C"/><text x="460" y="727.7894736842105" text-anchor="end" font-family="Arial" font-size="19" font-weight="700" fill="#14213D">La Candelaria</text><text x="1140" y="202" font-family="Arial" font-size="19" font-weight="700" fill="#14213D">La Candelaria</text><rect x="1220" y="655" width="290" height="105" rx="18" fill="#F5F7FA"/><text x="1365" y="688" text-anchor="middle" font-family="Arial" font-size="18" font-weight="700" fill="#14213D">Asociación de rangos</text><text x="1365" y="731" text-anchor="middle" font-family="Arial" font-size="40" font-weight="700" fill="#2A9D8F">0,205</text><text x="1365" y="752" text-anchor="middle" font-family="Arial" font-size="15" fill="#5B6573">Spearman · 2026</text>
  <line x1="90" y1="838" x2="1510" y2="838" stroke="#DDE3EA"/>
  <text x="90" y="872" font-family="Arial, sans-serif" font-size="17" fill="#5B6573">La tasa usa población residente; en localidades centrales debe considerarse la población flotante.</text>
  </svg>