<svg xmlns="http://www.w3.org/2000/svg" width="1600" height="900" viewBox="0 0 1600 900">
  <rect width="1600" height="900" fill="#FFFFFF"/>
  <rect width="1600" height="14" fill="#F4D35E"/>
  <text x="90" y="82" font-family="Arial, sans-serif" font-size="42" font-weight="700" fill="#14213D">La divergencia no es uniforme entre localidades</text>
  <text x="90" y="121" font-family="Arial, sans-serif" font-size="22" fill="#5B6573">Cambio porcentual entre enero–mayo de 2025 y enero–mayo de 2026</text>
  <line x1="338.75" y1="175" x2="338.75" y2="750" stroke="#DDE3EA" stroke-width="1"/><text x="338.75" y="785" text-anchor="middle" font-family="Arial" font-size="18" fill="#5B6573">-20%</text><line x1="656.25" y1="175" x2="656.25" y2="750" stroke="#DDE3EA" stroke-width="1"/><text x="656.25" y="785" text-anchor="middle" font-family="Arial" font-size="18" fill="#5B6573">-10%</text><line x1="973.75" y1="175" x2="973.75" y2="750" stroke="#5B6573" stroke-width="2"/><text x="973.75" y="785" text-anchor="middle" font-family="Arial" font-size="18" fill="#5B6573">0%</text><line x1="1291.25" y1="175" x2="1291.25" y2="750" stroke="#DDE3EA" stroke-width="1"/><text x="1291.25" y="785" text-anchor="middle" font-family="Arial" font-size="18" fill="#5B6573">10%</text><line x1="180" y1="750" x2="1450" y2="750" stroke="#DDE3EA" stroke-width="1"/><text x="160" y="756" text-anchor="end" font-family="Arial" font-size="18" fill="#5B6573">-20%</text><line x1="180" y1="645.4545454545455" x2="1450" y2="645.4545454545455" stroke="#DDE3EA" stroke-width="1"/><text x="160" y="651.4545454545455" text-anchor="end" font-family="Arial" font-size="18" fill="#5B6573">-10%</text><line x1="180" y1="540.9090909090909" x2="1450" y2="540.9090909090909" stroke="#5B6573" stroke-width="2"/><text x="160" y="546.9090909090909" text-anchor="end" font-family="Arial" font-size="18" fill="#5B6573">0%</text><line x1="180" y1="436.3636363636364" x2="1450" y2="436.3636363636364" stroke="#DDE3EA" stroke-width="1"/><text x="160" y="442.3636363636364" text-anchor="end" font-family="Arial" font-size="18" fill="#5B6573">10%</text><line x1="180" y1="331.8181818181818" x2="1450" y2="331.8181818181818" stroke="#DDE3EA" stroke-width="1"/><text x="160" y="337.8181818181818" text-anchor="end" font-family="Arial" font-size="18" fill="#5B6573">20%</text><line x1="180" y1="227.27272727272725" x2="1450" y2="227.27272727272725" stroke="#DDE3EA" stroke-width="1"/><text x="160" y="233.27272727272725" text-anchor="end" font-family="Arial" font-size="18" fill="#5B6573">30%</text><text x="815" y="815" text-anchor="middle" font-family="Arial" font-size="22" font-weight="700" fill="#B23A48">Cambio en hurtos registrados 2025–2026</text><text x="45" y="462.5" text-anchor="middle" transform="rotate(-90 45 462.5)" font-family="Arial" font-size="22" font-weight="700" fill="#1F6E8C">Cambio en incidentes 123</text><circle cx="852.1700425" cy="616.05927" r="7" fill="#1F6E8C" opacity="0.55"/><circle cx="1156.1713395" cy="451.35361454545455" r="10" fill="#2A9D8F" opacity="1"/><text x="1170.1713395" y="438.35361454545455" text-anchor="start" font-family="Arial" font-size="18" font-weight="700" fill="#14213D">Chapinero</text><circle cx="1170.1300365000002" cy="491.46191363636365" r="10" fill="#2A9D8F" opacity="1"/><text x="1184.1300365000002" y="478.46191363636365" text-anchor="start" font-family="Arial" font-size="18" font-weight="700" fill="#14213D">Santa Fe</text><circle cx="1019.4161519999999" cy="529.1522540909091" r="7" fill="#1F6E8C" opacity="0.55"/><circle cx="282.08333025" cy="693.1831313636363" r="7" fill="#1F6E8C" opacity="0.55"/><circle cx="311.58422375" cy="657.1579804545455" r="7" fill="#1F6E8C" opacity="0.55"/><circle cx="1362.18816775" cy="516.8648804545454" r="10" fill="#2A9D8F" opacity="1"/><text x="1376.18816775" y="503.8648804545454" text-anchor="start" font-family="Arial" font-size="18" font-weight="700" fill="#14213D">Bosa</text><circle cx="557.3787855" cy="568.5072195454545" r="7" fill="#1F6E8C" opacity="0.55"/><circle cx="605.17139375" cy="555.2064972727273" r="7" fill="#1F6E8C" opacity="0.55"/><circle cx="538.909112" cy="526.1797654545454" r="10" fill="#2A9D8F" opacity="1"/><text x="552.909112" y="513.1797654545454" text-anchor="start" font-family="Arial" font-size="18" font-weight="700" fill="#14213D">Engativá</text><circle cx="475.62434525" cy="547.6065340909091" r="10" fill="#2A9D8F" opacity="1"/><text x="489.62434525" y="534.6065340909091" text-anchor="start" font-family="Arial" font-size="18" font-weight="700" fill="#14213D">Suba</text><circle cx="652.73410025" cy="449.7934722727273" r="10" fill="#2A9D8F" opacity="1"/><text x="666.73410025" y="436.7934722727273" text-anchor="start" font-family="Arial" font-size="18" font-weight="700" fill="#14213D">Barrios Unidos</text><circle cx="693.152771" cy="228.0130763636364" r="10" fill="#2A9D8F" opacity="1"/><text x="707.152771" y="256.0130763636364" text-anchor="start" font-family="Arial" font-size="18" font-weight="700" fill="#14213D">Teusaquillo</text><circle cx="666.0665602500001" cy="528.2554213636363" r="7" fill="#1F6E8C" opacity="0.55"/><circle cx="1088.5090415" cy="721.9955554545454" r="7" fill="#1F6E8C" opacity="0.55"/><circle cx="681.6972440000001" cy="670.5392236363637" r="7" fill="#1F6E8C" opacity="0.55"/><circle cx="1090.5560275" cy="570.8743481818182" r="7" fill="#1F6E8C" opacity="0.55"/><circle cx="730.2624885" cy="556.3117413636363" r="7" fill="#1F6E8C" opacity="0.55"/><circle cx="258.83010650000006" cy="412.7878313636363" r="10" fill="#2A9D8F" opacity="1"/><text x="272.83010650000006" y="399.7878313636363" text-anchor="start" font-family="Arial" font-size="18" font-weight="700" fill="#14213D">Ciudad Bolívar</text><circle cx="973.75" cy="540.9090909090909" r="7" fill="#1F6E8C" opacity="0.55"/><rect x="250" y="205" width="390" height="70" rx="14" fill="#F4D35E" opacity="0.85"/><text x="445" y="235" text-anchor="middle" font-family="Arial" font-size="19" font-weight="700" fill="#14213D">Hurtos bajan, incidentes suben</text><text x="445" y="260" text-anchor="middle" font-family="Arial" font-size="17" fill="#14213D">Cuadrante de mayor divergencia</text>
  <line x1="90" y1="838" x2="1510" y2="838" stroke="#DDE3EA"/>
  <text x="90" y="872" font-family="Arial, sans-serif" font-size="17" fill="#5B6573">Cada punto representa una localidad. Señal exploratoria: no implica que una fuente sea correcta y la otra incorrecta.</text>
  </svg>