<svg xmlns="http://www.w3.org/2000/svg" width="1600" height="900" viewBox="0 0 1600 900">
  <rect width="1600" height="900" fill="#FFFFFF"/>
  <rect width="1600" height="14" fill="#F4D35E"/>
  <text x="90" y="82" font-family="Arial" font-size="42" font-weight="700" fill="#14213D">2025 tiene una ruptura de cobertura territorial</text>
  <text x="90" y="124" font-family="Arial" font-size="23" fill="#5B6573">Porcentaje de hurtos a personas con localidad asignada</text>
  <line x1="150" y1="720" x2="1450" y2="720" stroke="#DDE4EC"/><text x="130" y="726" text-anchor="end" font-family="Arial" font-size="18" fill="#5B6573">75%</text><line x1="150" y1="617" x2="1450" y2="617" stroke="#DDE4EC"/><text x="130" y="623" text-anchor="end" font-family="Arial" font-size="18" fill="#5B6573">80%</text><line x1="150" y1="514" x2="1450" y2="514" stroke="#DDE4EC"/><text x="130" y="520" text-anchor="end" font-family="Arial" font-size="18" fill="#5B6573">85%</text><line x1="150" y1="411" x2="1450" y2="411" stroke="#DDE4EC"/><text x="130" y="417" text-anchor="end" font-family="Arial" font-size="18" fill="#5B6573">90%</text><line x1="150" y1="308" x2="1450" y2="308" stroke="#DDE4EC"/><text x="130" y="314" text-anchor="end" font-family="Arial" font-size="18" fill="#5B6573">95%</text><line x1="150" y1="205" x2="1450" y2="205" stroke="#DDE4EC"/><text x="130" y="211" text-anchor="end" font-family="Arial" font-size="18" fill="#5B6573">100%</text><rect x="172" y="205" width="118.5" height="515" rx="7" fill="#2A9D8F"/><text x="231.25" y="755" text-anchor="middle" font-family="Arial" font-size="18" fill="#5B6573">2018</text><text x="231.25" y="193" text-anchor="middle" font-family="Arial" font-size="17" font-weight="700" fill="#2A9D8F">100,0%</text><rect x="334.5" y="205.66072439999982" width="118.5" height="514.3392756000002" rx="7" fill="#2A9D8F"/><text x="393.75" y="755" text-anchor="middle" font-family="Arial" font-size="18" fill="#5B6573">2019</text><text x="393.75" y="193.66072439999982" text-anchor="middle" font-family="Arial" font-size="17" font-weight="700" fill="#2A9D8F">100,0%</text><rect x="497" y="205.173452" width="118.5" height="514.826548" rx="7" fill="#2A9D8F"/><text x="556.25" y="755" text-anchor="middle" font-family="Arial" font-size="18" fill="#5B6573">2020</text><text x="556.25" y="193.173452" text-anchor="middle" font-family="Arial" font-size="17" font-weight="700" fill="#2A9D8F">100,0%</text><rect x="659.5" y="205.85213959999987" width="118.5" height="514.1478604000001" rx="7" fill="#2A9D8F"/><text x="718.75" y="755" text-anchor="middle" font-family="Arial" font-size="18" fill="#5B6573">2021</text><text x="718.75" y="193.85213959999987" text-anchor="middle" font-family="Arial" font-size="17" font-weight="700" fill="#2A9D8F">100,0%</text><rect x="822" y="205.21030540000004" width="118.5" height="514.7896946" rx="7" fill="#2A9D8F"/><text x="881.25" y="755" text-anchor="middle" font-family="Arial" font-size="18" fill="#5B6573">2022</text><text x="881.25" y="193.21030540000004" text-anchor="middle" font-family="Arial" font-size="17" font-weight="700" fill="#2A9D8F">100,0%</text><rect x="984.5" y="219.8322884000001" width="118.5" height="500.1677115999999" rx="7" fill="#2A9D8F"/><text x="1043.75" y="755" text-anchor="middle" font-family="Arial" font-size="18" fill="#5B6573">2023</text><text x="1043.75" y="207.8322884000001" text-anchor="middle" font-family="Arial" font-size="17" font-weight="700" fill="#2A9D8F">99,3%</text><rect x="1147" y="216.4441033999999" width="118.5" height="503.5558966000001" rx="7" fill="#2A9D8F"/><text x="1206.25" y="755" text-anchor="middle" font-family="Arial" font-size="18" fill="#5B6573">2024</text><text x="1206.25" y="204.4441033999999" text-anchor="middle" font-family="Arial" font-size="17" font-weight="700" fill="#2A9D8F">99,4%</text><rect x="1309.5" y="569.5101814000001" width="118.5" height="150.48981859999992" rx="7" fill="#B23A48"/><text x="1368.75" y="755" text-anchor="middle" font-family="Arial" font-size="18" fill="#5B6573">2025</text><text x="1368.75" y="557.5101814000001" text-anchor="middle" font-family="Arial" font-size="17" font-weight="700" fill="#B23A48">82,3%</text><rect x="860" y="245" width="530" height="145" rx="18" fill="#FBEAEC"/><text x="1125" y="292" text-anchor="middle" font-family="Arial" font-size="26" font-weight="700" fill="#B23A48">21.906 hurtos sin localidad</text><text x="1125" y="330" text-anchor="middle" font-family="Arial" font-size="20" fill="#14213D">17,7% del total distrital de 2025</text><text x="1125" y="365" text-anchor="middle" font-family="Arial" font-size="18" fill="#5B6573">El total sirve; el mapa requiere advertencia.</text>
  <line x1="90" y1="838" x2="1510" y2="838" stroke="#DDE4EC"/>
  <text x="90" y="873" font-family="Arial" font-size="17" fill="#5B6573">Cobertura = registros ubicados en una de las 20 localidades / total distrital del año.</text>
  </svg>