<svg xmlns="http://www.w3.org/2000/svg" width="1600" height="900" viewBox="0 0 1600 900">
  <rect width="1600" height="900" fill="#FFFFFF"/>
  <rect width="1600" height="14" fill="#F4D35E"/>
  <text x="90" y="82" font-family="Arial, sans-serif" font-size="42" font-weight="700" fill="#14213D">Las dos fuentes evolucionan en direcciones distintas</text>
  <text x="90" y="121" font-family="Arial, sans-serif" font-size="22" fill="#5B6573">Bogotá, acumulado enero–mayo de 2025 frente a 2026</text>
  <line x1="150" y1="690" x2="1120" y2="690" stroke="#DDE3EA" stroke-width="1"/><text x="135" y="696" text-anchor="end" font-family="Arial" font-size="17" fill="#5B6573">0</text><line x1="150" y1="613.0769230769231" x2="1120" y2="613.0769230769231" stroke="#DDE3EA" stroke-width="1"/><text x="135" y="619.0769230769231" text-anchor="end" font-family="Arial" font-size="17" fill="#5B6573">10.000</text><line x1="150" y1="536.1538461538462" x2="1120" y2="536.1538461538462" stroke="#DDE3EA" stroke-width="1"/><text x="135" y="542.1538461538462" text-anchor="end" font-family="Arial" font-size="17" fill="#5B6573">20.000</text><line x1="150" y1="459.2307692307692" x2="1120" y2="459.2307692307692" stroke="#DDE3EA" stroke-width="1"/><text x="135" y="465.2307692307692" text-anchor="end" font-family="Arial" font-size="17" fill="#5B6573">30.000</text><line x1="150" y1="382.30769230769226" x2="1120" y2="382.30769230769226" stroke="#DDE3EA" stroke-width="1"/><text x="135" y="388.30769230769226" text-anchor="end" font-family="Arial" font-size="17" fill="#5B6573">40.000</text><line x1="150" y1="305.38461538461536" x2="1120" y2="305.38461538461536" stroke="#DDE3EA" stroke-width="1"/><text x="135" y="311.38461538461536" text-anchor="end" font-family="Arial" font-size="17" fill="#5B6573">50.000</text><line x1="150" y1="228.46153846153845" x2="1120" y2="228.46153846153845" stroke="#DDE3EA" stroke-width="1"/><text x="135" y="234.46153846153845" text-anchor="end" font-family="Arial" font-size="17" fill="#5B6573">60.000</text><rect x="285" y="273.10769230769233" width="92" height="416.89230769230767" rx="8" fill="#B23A4899"/><text x="331" y="260.10769230769233" text-anchor="middle" font-family="Arial" font-size="22" font-weight="700" fill="#14213D">54.196</text><text x="331" y="724" text-anchor="middle" font-family="Arial" font-size="19" fill="#5B6573">2025</text><rect x="415" y="317.0538461538461" width="92" height="372.9461538461539" rx="8" fill="#B23A48"/><text x="461" y="304.0538461538461" text-anchor="middle" font-family="Arial" font-size="22" font-weight="700" fill="#14213D">48.483</text><text x="461" y="724" text-anchor="middle" font-family="Arial" font-size="19" fill="#5B6573">2026</text><text x="350" y="772" text-anchor="middle" font-family="Arial" font-size="24" font-weight="700" fill="#B23A48">Hurtos registrados</text><rect x="490" y="245" width="170" height="72" rx="14" fill="#2A9D8F"/><text x="575" y="290" text-anchor="middle" font-family="Arial" font-size="28" font-weight="700" fill="#14213D">-10,5%</text><rect x="755" y="244.0076923076923" width="92" height="445.9923076923077" rx="8" fill="#1F6E8C99"/><text x="801" y="231.0076923076923" text-anchor="middle" font-family="Arial" font-size="22" font-weight="700" fill="#14213D">57.979</text><text x="801" y="724" text-anchor="middle" font-family="Arial" font-size="19" fill="#5B6573">2025</text><rect x="885" y="242.3615384615385" width="92" height="447.6384615384615" rx="8" fill="#1F6E8C"/><text x="931" y="229.3615384615385" text-anchor="middle" font-family="Arial" font-size="22" font-weight="700" fill="#14213D">58.193</text><text x="931" y="724" text-anchor="middle" font-family="Arial" font-size="19" fill="#5B6573">2026</text><text x="820" y="772" text-anchor="middle" font-family="Arial" font-size="24" font-weight="700" fill="#1F6E8C">Incidentes 123</text><rect x="960" y="245" width="170" height="72" rx="14" fill="#F4D35E"/><text x="1045" y="290" text-anchor="middle" font-family="Arial" font-size="28" font-weight="700" fill="#14213D">0,4%</text><rect x="1190" y="220" width="320" height="355" rx="22" fill="#F5F7FA" stroke="#1F6E8C" stroke-width="2"/><text x="1350" y="275" text-anchor="middle" font-family="Arial" font-size="25" font-weight="700" fill="#14213D">Razón incidentes / hurto</text><text x="1350" y="375" text-anchor="middle" font-family="Arial" font-size="58" font-weight="700" fill="#1F6E8C">1,07</text><text x="1350" y="410" text-anchor="middle" font-family="Arial" font-size="19" fill="#5B6573">2025</text><path d="M1270 455 H1430" stroke="#2A9D8F" stroke-width="8" marker-end="url(#arrow)"/><defs><marker id="arrow" viewBox="0 0 10 10" refX="9" refY="5" markerWidth="7" markerHeight="7" orient="auto-start-reverse"><path d="M 0 0 L 10 5 L 0 10 z" fill="#2A9D8F"/></marker></defs><text x="1350" y="530" text-anchor="middle" font-family="Arial" font-size="58" font-weight="700" fill="#2A9D8F">1,20</text><text x="1350" y="565" text-anchor="middle" font-family="Arial" font-size="19" fill="#5B6573">2026 · +12,2%</text>
  <line x1="90" y1="838" x2="1510" y2="838" stroke="#DDE3EA"/>
  <text x="90" y="872" font-family="Arial, sans-serif" font-size="17" fill="#5B6573">Incluye registros sin localización. La divergencia no demuestra subregistro ni causalidad.</text>
  </svg>