<svg xmlns="http://www.w3.org/2000/svg" width="1600" height="900" viewBox="0 0 1600 900">
  <rect width="1600" height="900" fill="#FFFFFF"/>
  <rect width="1600" height="14" fill="#F4D35E"/>
  <text x="90" y="82" font-family="Arial" font-size="42" font-weight="700" fill="#14213D">Conteo y tasa siguen contando historias distintas</text>
  <text x="90" y="124" font-family="Arial" font-size="23" fill="#5B6573">Último año con cobertura territorial superior al 99%: 2024</text>
  <text x="520" y="165" text-anchor="middle" font-family="Arial" font-size="24" font-weight="700" fill="#B23A48">Ranking por conteo</text><text x="1080" y="165" text-anchor="middle" font-family="Arial" font-size="24" font-weight="700" fill="#1F6E8C">Ranking por tasa</text><line x1="520" y1="195" x2="520" y2="750" stroke="#DDE4EC" stroke-width="5"/><line x1="1080" y1="195" x2="1080" y2="750" stroke="#DDE4EC" stroke-width="5"/><text x="478" y="202" text-anchor="end" font-family="Arial" font-size="18" fill="#5B6573">1</text><text x="1122" y="202" font-family="Arial" font-size="18" fill="#5B6573">1</text><text x="478" y="318.8421052631579" text-anchor="end" font-family="Arial" font-size="18" fill="#5B6573">5</text><text x="1122" y="318.8421052631579" font-family="Arial" font-size="18" fill="#5B6573">5</text><text x="478" y="464.89473684210526" text-anchor="end" font-family="Arial" font-size="18" fill="#5B6573">10</text><text x="1122" y="464.89473684210526" font-family="Arial" font-size="18" fill="#5B6573">10</text><text x="478" y="610.9473684210526" text-anchor="end" font-family="Arial" font-size="18" fill="#5B6573">15</text><text x="1122" y="610.9473684210526" font-family="Arial" font-size="18" fill="#5B6573">15</text><text x="478" y="757" text-anchor="end" font-family="Arial" font-size="18" fill="#5B6573">20</text><text x="1122" y="757" font-family="Arial" font-size="18" fill="#5B6573">20</text><line x1="520" y1="720.7894736842105" x2="1080" y2="224.21052631578948" stroke="#1F6E8C" stroke-width="4" opacity="0.8"/><circle cx="520" cy="720.7894736842105" r="9" fill="#B23A48"/><circle cx="1080" cy="224.21052631578948" r="9" fill="#1F6E8C"/><text x="460" y="727.7894736842105" text-anchor="end" font-family="Arial" font-size="18" font-weight="700" fill="#14213D">La Candelaria</text><text x="1165" y="231.21052631578948" font-family="Arial" font-size="18" font-weight="700" fill="#14213D">La Candelaria</text><line x1="520" y1="195" x2="1080" y2="574.7368421052631" stroke="#2A9D8F" stroke-width="4" opacity="0.8"/><circle cx="520" cy="195" r="9" fill="#B23A48"/><circle cx="1080" cy="574.7368421052631" r="9" fill="#1F6E8C"/><text x="460" y="202" text-anchor="end" font-family="Arial" font-size="18" font-weight="700" fill="#14213D">Suba</text><text x="1165" y="581.7368421052631" font-family="Arial" font-size="18" font-weight="700" fill="#14213D">Suba</text><line x1="520" y1="691.578947368421" x2="1080" y2="370.2631578947368" stroke="#1F6E8C" stroke-width="4" opacity="0.8"/><circle cx="520" cy="691.578947368421" r="9" fill="#B23A48"/><circle cx="1080" cy="370.2631578947368" r="9" fill="#1F6E8C"/><text x="460" y="698.578947368421" text-anchor="end" font-family="Arial" font-size="18" font-weight="700" fill="#14213D">Antonio Nariño</text><text x="1165" y="377.2631578947368" font-family="Arial" font-size="18" font-weight="700" fill="#14213D">Antonio Nariño</text><line x1="520" y1="253.42105263157896" x2="1080" y2="545.5263157894736" stroke="#2A9D8F" stroke-width="4" opacity="0.8"/><circle cx="520" cy="253.42105263157896" r="9" fill="#B23A48"/><circle cx="1080" cy="545.5263157894736" r="9" fill="#1F6E8C"/><text x="460" y="260.42105263157896" text-anchor="end" font-family="Arial" font-size="18" font-weight="700" fill="#14213D">Kennedy</text><text x="1165" y="552.5263157894736" font-family="Arial" font-size="18" font-weight="700" fill="#14213D">Kennedy</text><line x1="520" y1="224.21052631578948" x2="1080" y2="457.89473684210526" stroke="#1F6E8C" stroke-width="4" opacity="0.8"/><circle cx="520" cy="224.21052631578948" r="9" fill="#B23A48"/><circle cx="1080" cy="457.89473684210526" r="9" fill="#1F6E8C"/><text x="460" y="231.21052631578948" text-anchor="end" font-family="Arial" font-size="18" font-weight="700" fill="#14213D">Engativá</text><text x="1165" y="464.89473684210526" font-family="Arial" font-size="18" font-weight="700" fill="#14213D">Engativá</text><line x1="520" y1="487.10526315789474" x2="1080" y2="691.578947368421" stroke="#2A9D8F" stroke-width="4" opacity="0.8"/><circle cx="520" cy="487.10526315789474" r="9" fill="#B23A48"/><circle cx="1080" cy="691.578947368421" r="9" fill="#1F6E8C"/><text x="460" y="494.10526315789474" text-anchor="end" font-family="Arial" font-size="18" font-weight="700" fill="#14213D">Bosa</text><text x="1165" y="698.578947368421" font-family="Arial" font-size="18" font-weight="700" fill="#14213D">Bosa</text><line x1="520" y1="516.3157894736842" x2="1080" y2="341.0526315789474" stroke="#1F6E8C" stroke-width="4" opacity="0.8"/><circle cx="520" cy="516.3157894736842" r="9" fill="#B23A48"/><circle cx="1080" cy="341.0526315789474" r="9" fill="#1F6E8C"/><text x="460" y="523.3157894736842" text-anchor="end" font-family="Arial" font-size="18" font-weight="700" fill="#14213D">Barrios Unidos</text><text x="1165" y="348.0526315789474" font-family="Arial" font-size="18" font-weight="700" fill="#14213D">Barrios Unidos</text><line x1="520" y1="662.3684210526316" x2="1080" y2="516.3157894736842" stroke="#2A9D8F" stroke-width="4" opacity="0.8"/><circle cx="520" cy="662.3684210526316" r="9" fill="#B23A48"/><circle cx="1080" cy="516.3157894736842" r="9" fill="#1F6E8C"/><text x="460" y="669.3684210526316" text-anchor="end" font-family="Arial" font-size="18" font-weight="700" fill="#14213D">Tunjuelito</text><text x="1165" y="523.3157894736842" font-family="Arial" font-size="18" font-weight="700" fill="#14213D">Tunjuelito</text><rect x="1225" y="660" width="285" height="100" rx="16" fill="#F5F7FA"/><text x="1367" y="695" text-anchor="middle" font-family="Arial" font-size="18" font-weight="700" fill="#14213D">Asociación de rangos</text><text x="1367" y="740" text-anchor="middle" font-family="Arial" font-size="40" font-weight="700" fill="#2A9D8F">0,296</text>
  <line x1="90" y1="838" x2="1510" y2="838" stroke="#DDE4EC"/>
  <text x="90" y="873" font-family="Arial" font-size="17" fill="#5B6573">La tasa usa población residente y debe interpretarse con cautela en localidades con alta población flotante.</text>
  </svg>