<svg xmlns="http://www.w3.org/2000/svg" width="1600" height="900" viewBox="0 0 1600 900">
  <rect width="1600" height="900" fill="#FFFFFF"/>
  <rect width="1600" height="14" fill="#F4D35E"/>
  <text x="90" y="82" font-family="Arial" font-size="42" font-weight="700" fill="#14213D">La trayectoria anual no es lineal</text>
  <text x="90" y="124" font-family="Arial" font-size="23" fill="#5B6573">Totales distritales de años completos, 2018–2025</text>
  <line x1="155" y1="690.5555555555555" x2="1450" y2="690.5555555555555" stroke="#DDE4EC"/><text x="133" y="696.5555555555555" text-anchor="end" font-family="Arial" font-size="18" fill="#5B6573">80 mil</text><line x1="155" y1="572.7777777777778" x2="1450" y2="572.7777777777778" stroke="#DDE4EC"/><text x="133" y="578.7777777777778" text-anchor="end" font-family="Arial" font-size="18" fill="#5B6573">100 mil</text><line x1="155" y1="455" x2="1450" y2="455" stroke="#DDE4EC"/><text x="133" y="461" text-anchor="end" font-family="Arial" font-size="18" fill="#5B6573">120 mil</text><line x1="155" y1="337.22222222222223" x2="1450" y2="337.22222222222223" stroke="#DDE4EC"/><text x="133" y="343.22222222222223" text-anchor="end" font-family="Arial" font-size="18" fill="#5B6573">140 mil</text><line x1="155" y1="219.44444444444446" x2="1450" y2="219.44444444444446" stroke="#DDE4EC"/><text x="133" y="225.44444444444446" text-anchor="end" font-family="Arial" font-size="18" fill="#5B6573">160 mil</text><path d="M 155 537.7801111111111 L 340 408.90177777777774 L 525 672.1174444444445 L 710 521.0438888888889 L 895 354.1115555555556 L 1080 226.82322222222223 L 1265 393.1431111111111 L 1450 432.6222222222222" fill="none" stroke="#B23A48" stroke-width="6"/><path d="M 155 270.2007777777778 L 340 290.15233333333333 L 525 476.77711111111114 L 710 318.60155555555554 L 895 338.32933333333335 L 1080 302.64855555555556 L 1265 366.8786666666667 L 1450 342.62822222222223" fill="none" stroke="#1F6E8C" stroke-width="6"/><text x="155" y="758" text-anchor="middle" font-family="Arial" font-size="18" fill="#5B6573">2018</text><circle cx="155" cy="537.7801111111111" r="8" fill="#B23A48"/><circle cx="155" cy="270.2007777777778" r="8" fill="#1F6E8C"/><text x="340" y="758" text-anchor="middle" font-family="Arial" font-size="18" fill="#5B6573">2019</text><circle cx="340" cy="408.90177777777774" r="8" fill="#B23A48"/><circle cx="340" cy="290.15233333333333" r="8" fill="#1F6E8C"/><text x="525" y="758" text-anchor="middle" font-family="Arial" font-size="18" fill="#5B6573">2020</text><circle cx="525" cy="672.1174444444445" r="8" fill="#B23A48"/><circle cx="525" cy="476.77711111111114" r="8" fill="#1F6E8C"/><text x="710" y="758" text-anchor="middle" font-family="Arial" font-size="18" fill="#5B6573">2021</text><circle cx="710" cy="521.0438888888889" r="8" fill="#B23A48"/><circle cx="710" cy="318.60155555555554" r="8" fill="#1F6E8C"/><text x="895" y="758" text-anchor="middle" font-family="Arial" font-size="18" fill="#5B6573">2022</text><circle cx="895" cy="354.1115555555556" r="8" fill="#B23A48"/><circle cx="895" cy="338.32933333333335" r="8" fill="#1F6E8C"/><text x="1080" y="758" text-anchor="middle" font-family="Arial" font-size="18" fill="#5B6573">2023</text><circle cx="1080" cy="226.82322222222223" r="8" fill="#B23A48"/><circle cx="1080" cy="302.64855555555556" r="8" fill="#1F6E8C"/><text x="1265" y="758" text-anchor="middle" font-family="Arial" font-size="18" fill="#5B6573">2024</text><circle cx="1265" cy="393.1431111111111" r="8" fill="#B23A48"/><circle cx="1265" cy="366.8786666666667" r="8" fill="#1F6E8C"/><text x="1450" y="758" text-anchor="middle" font-family="Arial" font-size="18" fill="#5B6573">2025</text><circle cx="1450" cy="432.6222222222222" r="8" fill="#B23A48"/><circle cx="1450" cy="342.62822222222223" r="8" fill="#1F6E8C"/><rect x="935" y="144.82322222222223" width="290" height="56" rx="12" fill="#F5F7FA"/><text x="1080" y="177.82322222222223" text-anchor="middle" font-family="Arial" font-size="18" font-weight="700" fill="#14213D">Pico 2023: 158.747</text><line x1="180" y1="165" x2="230" y2="165" stroke="#B23A48" stroke-width="6"/><text x="245" y="172" font-family="Arial" font-size="19" fill="#14213D">Hurtos a personas</text><line x1="445" y1="165" x2="495" y2="165" stroke="#1F6E8C" stroke-width="6"/><text x="510" y="172" font-family="Arial" font-size="19" fill="#14213D">Incidentes 123</text><rect x="110" y="760" width="650" height="60" rx="14" fill="#FBEAEC"/><text x="435" y="797" text-anchor="middle" font-family="Arial" font-size="20" font-weight="700" fill="#B23A48">2024–2025: hurtos -5,1% · incidentes +3,1%</text>
  <line x1="90" y1="838" x2="1510" y2="838" stroke="#DDE4EC"/>
  <text x="90" y="873" font-family="Arial" font-size="17" fill="#5B6573">Fuentes: Delito de Alto Impacto e Incidente Reportado. Los conceptos son relacionados, no equivalentes.</text>
  </svg>